<svg xmlns="http://www.w3.org/2000/svg" viewBox="90 30 220 220" width="512" height="512">
  <!-- Black background -->
  <rect width="400" height="280" fill="#231f20"/>
  
  <!-- White outer frame -->
  <rect x="20" y="20" width="360" height="240" fill="none" stroke="#ffffff" stroke-width="3"/>
  
  <!-- Film strip perforations - top row -->
  <rect x="40" y="35" width="15" height="12" fill="#ffffff"/>
  <rect x="75" y="35" width="15" height="12" fill="#ffffff"/>
  <rect x="110" y="35" width="15" height="12" fill="#ffffff"/>
  <rect x="145" y="35" width="15" height="12" fill="#ffffff"/>
  <rect x="180" y="35" width="15" height="12" fill="#ffffff"/>
  <rect x="215" y="35" width="15" height="12" fill="#ffffff"/>
  <rect x="250" y="35" width="15" height="12" fill="#ffffff"/>
  <rect x="285" y="35" width="15" height="12" fill="#ffffff"/>
  <rect x="320" y="35" width="15" height="12" fill="#ffffff"/>
  
  <!-- Film strip perforations - bottom row -->
  <rect x="40" y="233" width="15" height="12" fill="#ffffff"/>
  <rect x="75" y="233" width="15" height="12" fill="#ffffff"/>
  <rect x="110" y="233" width="15" height="12" fill="#ffffff"/>
  <rect x="145" y="233" width="15" height="12" fill="#ffffff"/>
  <rect x="180" y="233" width="15" height="12" fill="#ffffff"/>
  <rect x="215" y="233" width="15" height="12" fill="#ffffff"/>
  <rect x="250" y="233" width="15" height="12" fill="#ffffff"/>
  <rect x="285" y="233" width="15" height="12" fill="#ffffff"/>
  <rect x="320" y="233" width="15" height="12" fill="#ffffff"/>
  
  <!-- Eye - exact copy from your original, scaled and repositioned -->
  <g transform="translate(-260, -330) scale(1.6)">
    <path class="st1" fill="#ffffff" d="M286.81,319.69c-12.74,0-27.79-4.58-43.24-19.3l-.68-.65.61-.72c.37-.45,9.35-10.96,24.8-16.38,14.26-5,36.87-6.31,63.55,15.9l.83.69-.74.77c-.43.45-10.78,11.11-26.9,16.6-5.21,1.78-11.38,3.09-18.21,3.09ZM245.65,299.61c18.28,17.07,38.03,22.15,58.72,15.1,13.23-4.51,22.65-12.8,25.33-15.33-20.53-16.76-40.93-21.76-60.67-14.87-12.7,4.43-21.08,12.66-23.38,15.11Z"/>
    <path class="st1" fill="#ffffff" d="M287.37,313.49c-10.78,0-19.55-8.77-19.55-19.55,0-4.53,1.58-8.95,4.46-12.43l1.54,1.27c-2.58,3.13-4.01,7.1-4.01,11.16,0,9.68,7.87,17.55,17.55,17.55s17.55-7.87,17.55-17.55c0-3.66-1.12-7.17-3.23-10.15l1.63-1.16c2.36,3.32,3.6,7.23,3.6,11.31,0,10.78-8.77,19.55-19.55,19.55Z"/>
    <circle class="st1" fill="#ffffff" cx="287.22" cy="292.79" r="12.1"/>
    <path class="st1" fill="#ffffff" d="M329.94,290.08c-17.93-15.8-37.88-20.62-59.29-14.33-16.04,4.71-26.93,14.23-27.04,14.33l-1.33-1.5c.45-.4,11.28-9.88,27.73-14.73,15.22-4.49,38.2-5.57,61.25,14.73l-1.32,1.5Z"/>
  </g>
</svg>